<mxfile host="Electron" modified="2024-07-30T08:45:44.409Z" agent="Mozilla/5.0 (Windows NT 10.0; Win64; x64) AppleWebKit/537.36 (KHTML, like Gecko) draw.io/24.6.4 Chrome/124.0.6367.207 Electron/30.0.6 Safari/537.36" etag="-CekvgyeTC9G2skrb0-7" version="24.6.4" type="device">
  <diagram name="第 1 页" id="XGV_dYEu4Lq5dEhnmUkp">
    <mxGraphModel dx="780" dy="496" grid="1" gridSize="10" guides="1" tooltips="1" connect="1" arrows="1" fold="1" page="0" pageScale="1" pageWidth="827" pageHeight="1169" math="0" shadow="0">
      <root>
        <mxCell id="0" />
        <mxCell id="1" parent="0" />
        <mxCell id="2s33keV95Jbq0aOUCzER-53" style="edgeStyle=orthogonalEdgeStyle;rounded=0;orthogonalLoop=1;jettySize=auto;html=1;entryX=0.5;entryY=1;entryDx=0;entryDy=0;" parent="1" source="2s33keV95Jbq0aOUCzER-1" target="2s33keV95Jbq0aOUCzER-29" edge="1">
          <mxGeometry relative="1" as="geometry">
            <Array as="points">
              <mxPoint x="230" y="470" />
              <mxPoint x="230" y="580" />
              <mxPoint x="300" y="580" />
            </Array>
          </mxGeometry>
        </mxCell>
        <mxCell id="2s33keV95Jbq0aOUCzER-1" value="第0项" style="rounded=0;whiteSpace=wrap;html=1;" parent="1" vertex="1">
          <mxGeometry x="120" y="460" width="80" height="20" as="geometry" />
        </mxCell>
        <mxCell id="2s33keV95Jbq0aOUCzER-3" value="" style="rounded=0;whiteSpace=wrap;html=1;" parent="1" vertex="1">
          <mxGeometry x="120" y="440" width="80" height="20" as="geometry" />
        </mxCell>
        <mxCell id="2s33keV95Jbq0aOUCzER-4" value="&lt;b&gt;PDE&lt;/b&gt;" style="rounded=0;whiteSpace=wrap;html=1;" parent="1" vertex="1">
          <mxGeometry x="120" y="420" width="80" height="20" as="geometry" />
        </mxCell>
        <mxCell id="2s33keV95Jbq0aOUCzER-5" value="..." style="rounded=0;whiteSpace=wrap;html=1;" parent="1" vertex="1">
          <mxGeometry x="120" y="400" width="80" height="20" as="geometry" />
        </mxCell>
        <mxCell id="2s33keV95Jbq0aOUCzER-6" value="" style="rounded=0;whiteSpace=wrap;html=1;" parent="1" vertex="1">
          <mxGeometry x="120" y="380" width="80" height="20" as="geometry" />
        </mxCell>
        <mxCell id="2s33keV95Jbq0aOUCzER-7" value="" style="rounded=0;whiteSpace=wrap;html=1;" parent="1" vertex="1">
          <mxGeometry x="120" y="360" width="80" height="20" as="geometry" />
        </mxCell>
        <mxCell id="2s33keV95Jbq0aOUCzER-8" value="第767项" style="rounded=0;whiteSpace=wrap;html=1;" parent="1" vertex="1">
          <mxGeometry x="120" y="340" width="80" height="20" as="geometry" />
        </mxCell>
        <mxCell id="2s33keV95Jbq0aOUCzER-54" style="edgeStyle=orthogonalEdgeStyle;rounded=0;orthogonalLoop=1;jettySize=auto;html=1;entryX=0;entryY=0.5;entryDx=0;entryDy=0;" parent="1" source="2s33keV95Jbq0aOUCzER-9" target="2s33keV95Jbq0aOUCzER-29" edge="1">
          <mxGeometry relative="1" as="geometry">
            <Array as="points">
              <mxPoint x="240" y="330" />
              <mxPoint x="240" y="550" />
            </Array>
          </mxGeometry>
        </mxCell>
        <mxCell id="2s33keV95Jbq0aOUCzER-9" value="第768项" style="rounded=0;whiteSpace=wrap;html=1;fillColor=#fff2cc;strokeColor=#d6b656;" parent="1" vertex="1">
          <mxGeometry x="120" y="320" width="80" height="20" as="geometry" />
        </mxCell>
        <mxCell id="2s33keV95Jbq0aOUCzER-56" style="edgeStyle=orthogonalEdgeStyle;rounded=0;orthogonalLoop=1;jettySize=auto;html=1;entryX=0;entryY=0.5;entryDx=0;entryDy=0;" parent="1" source="2s33keV95Jbq0aOUCzER-10" target="2s33keV95Jbq0aOUCzER-40" edge="1">
          <mxGeometry relative="1" as="geometry" />
        </mxCell>
        <mxCell id="2s33keV95Jbq0aOUCzER-10" value="第769项" style="rounded=0;whiteSpace=wrap;html=1;fillColor=#fff2cc;strokeColor=#d6b656;" parent="1" vertex="1">
          <mxGeometry x="120" y="300" width="80" height="20" as="geometry" />
        </mxCell>
        <mxCell id="2s33keV95Jbq0aOUCzER-11" value="..." style="rounded=0;whiteSpace=wrap;html=1;fillColor=#fff2cc;strokeColor=#d6b656;" parent="1" vertex="1">
          <mxGeometry x="120" y="280" width="80" height="20" as="geometry" />
        </mxCell>
        <mxCell id="2s33keV95Jbq0aOUCzER-55" style="edgeStyle=elbowEdgeStyle;rounded=0;orthogonalLoop=1;jettySize=auto;html=1;entryX=0.961;entryY=0.021;entryDx=0;entryDy=0;entryPerimeter=0;" parent="1" source="2s33keV95Jbq0aOUCzER-12" target="2s33keV95Jbq0aOUCzER-14" edge="1">
          <mxGeometry relative="1" as="geometry">
            <mxPoint x="70" y="460" as="targetPoint" />
            <Array as="points">
              <mxPoint x="60" y="360" />
            </Array>
          </mxGeometry>
        </mxCell>
        <mxCell id="2s33keV95Jbq0aOUCzER-12" value="第1023项" style="rounded=0;whiteSpace=wrap;html=1;fillColor=#fff2cc;strokeColor=#d6b656;" parent="1" vertex="1">
          <mxGeometry x="120" y="260" width="80" height="20" as="geometry" />
        </mxCell>
        <mxCell id="2s33keV95Jbq0aOUCzER-14" value="0x000" style="text;html=1;align=center;verticalAlign=middle;resizable=0;points=[];autosize=1;strokeColor=none;fillColor=none;spacing=0;" parent="1" vertex="1">
          <mxGeometry x="72" y="470" width="50" height="20" as="geometry" />
        </mxCell>
        <mxCell id="2s33keV95Jbq0aOUCzER-15" value="0xc00" style="text;html=1;align=center;verticalAlign=middle;resizable=0;points=[];autosize=1;strokeColor=none;fillColor=none;spacing=0;" parent="1" vertex="1">
          <mxGeometry x="72" y="330" width="50" height="20" as="geometry" />
        </mxCell>
        <mxCell id="2s33keV95Jbq0aOUCzER-16" value="0x1000" style="text;html=1;align=center;verticalAlign=middle;resizable=0;points=[];autosize=1;strokeColor=none;fillColor=none;spacing=0;" parent="1" vertex="1">
          <mxGeometry x="67" y="310" width="60" height="20" as="geometry" />
        </mxCell>
        <mxCell id="2s33keV95Jbq0aOUCzER-17" value="0x3fff" style="text;html=1;align=center;verticalAlign=middle;resizable=0;points=[];autosize=1;strokeColor=none;fillColor=none;spacing=0;" parent="1" vertex="1">
          <mxGeometry x="73" y="253" width="50" height="20" as="geometry" />
        </mxCell>
        <mxCell id="2s33keV95Jbq0aOUCzER-29" value="第0项" style="rounded=0;whiteSpace=wrap;html=1;" parent="1" vertex="1">
          <mxGeometry x="260" y="540" width="80" height="20" as="geometry" />
        </mxCell>
        <mxCell id="2s33keV95Jbq0aOUCzER-30" value="" style="rounded=0;whiteSpace=wrap;html=1;" parent="1" vertex="1">
          <mxGeometry x="260" y="520" width="80" height="20" as="geometry" />
        </mxCell>
        <mxCell id="2s33keV95Jbq0aOUCzER-31" value="" style="rounded=0;whiteSpace=wrap;html=1;" parent="1" vertex="1">
          <mxGeometry x="260" y="500" width="80" height="20" as="geometry" />
        </mxCell>
        <mxCell id="2s33keV95Jbq0aOUCzER-32" value="" style="rounded=0;whiteSpace=wrap;html=1;" parent="1" vertex="1">
          <mxGeometry x="260" y="480" width="80" height="20" as="geometry" />
        </mxCell>
        <mxCell id="2s33keV95Jbq0aOUCzER-33" value="第255项" style="rounded=0;whiteSpace=wrap;html=1;" parent="1" vertex="1">
          <mxGeometry x="260" y="460" width="80" height="20" as="geometry" />
        </mxCell>
        <mxCell id="2s33keV95Jbq0aOUCzER-34" value="" style="rounded=0;whiteSpace=wrap;html=1;" parent="1" vertex="1">
          <mxGeometry x="260" y="440" width="80" height="20" as="geometry" />
        </mxCell>
        <mxCell id="2s33keV95Jbq0aOUCzER-35" value="" style="rounded=0;whiteSpace=wrap;html=1;" parent="1" vertex="1">
          <mxGeometry x="260" y="420" width="80" height="20" as="geometry" />
        </mxCell>
        <mxCell id="2s33keV95Jbq0aOUCzER-36" value="" style="rounded=0;whiteSpace=wrap;html=1;" parent="1" vertex="1">
          <mxGeometry x="260" y="400" width="80" height="20" as="geometry" />
        </mxCell>
        <mxCell id="2s33keV95Jbq0aOUCzER-37" value="..." style="rounded=0;whiteSpace=wrap;html=1;" parent="1" vertex="1">
          <mxGeometry x="260" y="380" width="80" height="20" as="geometry" />
        </mxCell>
        <mxCell id="2s33keV95Jbq0aOUCzER-38" value="&lt;b&gt;PTE&lt;/b&gt;" style="rounded=0;whiteSpace=wrap;html=1;" parent="1" vertex="1">
          <mxGeometry x="260" y="360" width="80" height="20" as="geometry" />
        </mxCell>
        <mxCell id="2s33keV95Jbq0aOUCzER-39" value="第1023项" style="rounded=0;whiteSpace=wrap;html=1;" parent="1" vertex="1">
          <mxGeometry x="260" y="340" width="80" height="20" as="geometry" />
        </mxCell>
        <mxCell id="2s33keV95Jbq0aOUCzER-40" value="第0项" style="rounded=0;whiteSpace=wrap;html=1;" parent="1" vertex="1">
          <mxGeometry x="260" y="300" width="80" height="20" as="geometry" />
        </mxCell>
        <mxCell id="2s33keV95Jbq0aOUCzER-41" value="" style="rounded=0;whiteSpace=wrap;html=1;" parent="1" vertex="1">
          <mxGeometry x="260" y="280" width="80" height="20" as="geometry" />
        </mxCell>
        <mxCell id="2s33keV95Jbq0aOUCzER-42" value="" style="rounded=0;whiteSpace=wrap;html=1;" parent="1" vertex="1">
          <mxGeometry x="260" y="260" width="80" height="20" as="geometry" />
        </mxCell>
        <mxCell id="2s33keV95Jbq0aOUCzER-43" value="" style="rounded=0;whiteSpace=wrap;html=1;" parent="1" vertex="1">
          <mxGeometry x="260" y="240" width="80" height="20" as="geometry" />
        </mxCell>
        <mxCell id="2s33keV95Jbq0aOUCzER-44" value="" style="rounded=0;whiteSpace=wrap;html=1;" parent="1" vertex="1">
          <mxGeometry x="260" y="220" width="80" height="20" as="geometry" />
        </mxCell>
        <mxCell id="2s33keV95Jbq0aOUCzER-45" value="..." style="rounded=0;whiteSpace=wrap;html=1;" parent="1" vertex="1">
          <mxGeometry x="260" y="200" width="80" height="20" as="geometry" />
        </mxCell>
        <mxCell id="2s33keV95Jbq0aOUCzER-46" value="" style="rounded=0;whiteSpace=wrap;html=1;" parent="1" vertex="1">
          <mxGeometry x="260" y="180" width="80" height="20" as="geometry" />
        </mxCell>
        <mxCell id="2s33keV95Jbq0aOUCzER-47" value="" style="rounded=0;whiteSpace=wrap;html=1;" parent="1" vertex="1">
          <mxGeometry x="260" y="160" width="80" height="20" as="geometry" />
        </mxCell>
        <mxCell id="2s33keV95Jbq0aOUCzER-48" value="" style="rounded=0;whiteSpace=wrap;html=1;" parent="1" vertex="1">
          <mxGeometry x="260" y="140" width="80" height="20" as="geometry" />
        </mxCell>
        <mxCell id="2s33keV95Jbq0aOUCzER-49" value="&lt;b&gt;PTE&lt;/b&gt;" style="rounded=0;whiteSpace=wrap;html=1;" parent="1" vertex="1">
          <mxGeometry x="260" y="120" width="80" height="20" as="geometry" />
        </mxCell>
        <mxCell id="2s33keV95Jbq0aOUCzER-50" value="第1023项" style="rounded=0;whiteSpace=wrap;html=1;" parent="1" vertex="1">
          <mxGeometry x="260" y="100" width="80" height="20" as="geometry" />
        </mxCell>
        <mxCell id="2s33keV95Jbq0aOUCzER-51" value="页表1" style="text;html=1;align=center;verticalAlign=middle;resizable=0;points=[];autosize=1;strokeColor=none;fillColor=none;spacing=0;fontStyle=1;fontSize=16;" parent="1" vertex="1">
          <mxGeometry x="270" y="395" width="60" height="30" as="geometry" />
        </mxCell>
        <mxCell id="2s33keV95Jbq0aOUCzER-52" value="&lt;b style=&quot;font-size: 16px;&quot;&gt;页表2&lt;/b&gt;" style="text;html=1;align=center;verticalAlign=middle;resizable=0;points=[];autosize=1;strokeColor=none;fillColor=none;spacing=0;fontSize=16;" parent="1" vertex="1">
          <mxGeometry x="270" y="235" width="60" height="30" as="geometry" />
        </mxCell>
        <mxCell id="2s33keV95Jbq0aOUCzER-57" value="" style="rounded=0;whiteSpace=wrap;html=1;" parent="1" vertex="1">
          <mxGeometry x="490" y="532" width="80" height="20" as="geometry" />
        </mxCell>
        <mxCell id="2s33keV95Jbq0aOUCzER-58" value="" style="rounded=0;whiteSpace=wrap;html=1;" parent="1" vertex="1">
          <mxGeometry x="490" y="512" width="80" height="20" as="geometry" />
        </mxCell>
        <mxCell id="2s33keV95Jbq0aOUCzER-59" value="" style="rounded=0;whiteSpace=wrap;html=1;" parent="1" vertex="1">
          <mxGeometry x="490" y="492" width="80" height="20" as="geometry" />
        </mxCell>
        <mxCell id="2s33keV95Jbq0aOUCzER-60" value="" style="rounded=0;whiteSpace=wrap;html=1;" parent="1" vertex="1">
          <mxGeometry x="490" y="472" width="80" height="20" as="geometry" />
        </mxCell>
        <mxCell id="2s33keV95Jbq0aOUCzER-61" value="" style="rounded=0;whiteSpace=wrap;html=1;" parent="1" vertex="1">
          <mxGeometry x="490" y="452" width="80" height="20" as="geometry" />
        </mxCell>
        <mxCell id="2s33keV95Jbq0aOUCzER-62" value="..." style="rounded=0;whiteSpace=wrap;html=1;" parent="1" vertex="1">
          <mxGeometry x="490" y="432" width="80" height="20" as="geometry" />
        </mxCell>
        <mxCell id="2s33keV95Jbq0aOUCzER-63" value="" style="rounded=0;whiteSpace=wrap;html=1;" parent="1" vertex="1">
          <mxGeometry x="490" y="412" width="80" height="20" as="geometry" />
        </mxCell>
        <mxCell id="2s33keV95Jbq0aOUCzER-64" value="" style="rounded=0;whiteSpace=wrap;html=1;fillColor=#fff2cc;strokeColor=#d6b656;" parent="1" vertex="1">
          <mxGeometry x="490" y="392" width="80" height="20" as="geometry" />
        </mxCell>
        <mxCell id="2s33keV95Jbq0aOUCzER-65" value="" style="rounded=0;whiteSpace=wrap;html=1;fillColor=#fff2cc;strokeColor=#d6b656;" parent="1" vertex="1">
          <mxGeometry x="490" y="372" width="80" height="20" as="geometry" />
        </mxCell>
        <mxCell id="2s33keV95Jbq0aOUCzER-66" value="..." style="rounded=0;whiteSpace=wrap;html=1;fillColor=#fff2cc;strokeColor=#d6b656;" parent="1" vertex="1">
          <mxGeometry x="490" y="352" width="80" height="20" as="geometry" />
        </mxCell>
        <mxCell id="2s33keV95Jbq0aOUCzER-67" value="" style="rounded=0;whiteSpace=wrap;html=1;fillColor=#fff2cc;strokeColor=#d6b656;" parent="1" vertex="1">
          <mxGeometry x="490" y="332" width="80" height="20" as="geometry" />
        </mxCell>
        <mxCell id="2s33keV95Jbq0aOUCzER-68" value="虚拟内存" style="text;html=1;align=center;verticalAlign=middle;resizable=0;points=[];autosize=1;strokeColor=none;fillColor=none;spacing=0;fontStyle=1;fontSize=16;" parent="1" vertex="1">
          <mxGeometry x="490" y="467" width="80" height="30" as="geometry" />
        </mxCell>
        <mxCell id="2s33keV95Jbq0aOUCzER-69" value="0x0000_0000" style="text;html=1;align=center;verticalAlign=middle;resizable=0;points=[];autosize=1;strokeColor=none;fillColor=none;spacing=0;" parent="1" vertex="1">
          <mxGeometry x="400" y="542" width="90" height="20" as="geometry" />
        </mxCell>
        <mxCell id="2s33keV95Jbq0aOUCzER-70" value="0xc000_0000" style="text;html=1;align=center;verticalAlign=middle;resizable=0;points=[];autosize=1;strokeColor=none;fillColor=none;spacing=0;" parent="1" vertex="1">
          <mxGeometry x="405" y="402" width="90" height="20" as="geometry" />
        </mxCell>
        <mxCell id="2s33keV95Jbq0aOUCzER-71" value="0xc03f_ffff" style="text;html=1;align=center;verticalAlign=middle;resizable=0;points=[];autosize=1;strokeColor=none;fillColor=none;spacing=0;" parent="1" vertex="1">
          <mxGeometry x="420" y="362" width="70" height="20" as="geometry" />
        </mxCell>
        <mxCell id="2s33keV95Jbq0aOUCzER-72" value="0xffff_ffff" style="text;html=1;align=center;verticalAlign=middle;resizable=0;points=[];autosize=1;strokeColor=none;fillColor=none;spacing=0;" parent="1" vertex="1">
          <mxGeometry x="430" y="323" width="60" height="20" as="geometry" />
        </mxCell>
        <mxCell id="2s33keV95Jbq0aOUCzER-74" value="" style="shape=curlyBracket;whiteSpace=wrap;html=1;rounded=1;flipH=1;labelPosition=right;verticalLabelPosition=middle;align=left;verticalAlign=middle;" parent="1" vertex="1">
          <mxGeometry x="573" y="422" width="20" height="120" as="geometry" />
        </mxCell>
        <mxCell id="2s33keV95Jbq0aOUCzER-75" value="3GB" style="text;html=1;align=center;verticalAlign=middle;resizable=0;points=[];autosize=1;strokeColor=none;fillColor=none;spacing=0;" parent="1" vertex="1">
          <mxGeometry x="586" y="470" width="40" height="20" as="geometry" />
        </mxCell>
        <mxCell id="2s33keV95Jbq0aOUCzER-76" value="" style="rounded=0;whiteSpace=wrap;html=1;fillColor=none;strokeColor=#663300;strokeWidth=3;" parent="1" vertex="1">
          <mxGeometry x="120" y="261" width="80" height="220" as="geometry" />
        </mxCell>
        <mxCell id="2s33keV95Jbq0aOUCzER-77" value="" style="rounded=0;whiteSpace=wrap;html=1;fillColor=none;strokeColor=#FF3333;strokeWidth=3;" parent="1" vertex="1">
          <mxGeometry x="260" y="99.5" width="80" height="220" as="geometry" />
        </mxCell>
        <mxCell id="2s33keV95Jbq0aOUCzER-78" value="" style="rounded=0;whiteSpace=wrap;html=1;fillColor=none;strokeColor=#FF3333;strokeWidth=3;verticalAlign=middle;" parent="1" vertex="1">
          <mxGeometry x="260" y="339" width="80" height="220" as="geometry" />
        </mxCell>
        <mxCell id="2s33keV95Jbq0aOUCzER-92" style="edgeStyle=elbowEdgeStyle;rounded=0;orthogonalLoop=1;jettySize=auto;html=1;exitX=0.5;exitY=0;exitDx=0;exitDy=0;" parent="1" source="2s33keV95Jbq0aOUCzER-96" edge="1">
          <mxGeometry relative="1" as="geometry">
            <mxPoint x="470" y="210" as="targetPoint" />
            <Array as="points" />
          </mxGeometry>
        </mxCell>
        <mxCell id="2s33keV95Jbq0aOUCzER-79" value="" style="rounded=0;whiteSpace=wrap;html=1;fillColor=none;strokeColor=#0000FF;strokeWidth=3;" parent="1" vertex="1">
          <mxGeometry x="490" y="332" width="80" height="220" as="geometry" />
        </mxCell>
        <mxCell id="2s33keV95Jbq0aOUCzER-80" value="" style="rounded=0;whiteSpace=wrap;html=1;fillColor=none;strokeWidth=3;strokeColor=#FF3333;" parent="1" vertex="1">
          <mxGeometry x="120" y="170" width="36" height="20" as="geometry" />
        </mxCell>
        <mxCell id="2s33keV95Jbq0aOUCzER-81" value="" style="rounded=0;whiteSpace=wrap;html=1;fillColor=none;strokeWidth=3;strokeColor=#0000FF;" parent="1" vertex="1">
          <mxGeometry x="120" y="200" width="36" height="20" as="geometry" />
        </mxCell>
        <mxCell id="2s33keV95Jbq0aOUCzER-82" value="4GB" style="text;html=1;align=center;verticalAlign=middle;resizable=0;points=[];autosize=1;strokeColor=none;fillColor=none;spacing=0;" parent="1" vertex="1">
          <mxGeometry x="161" y="200" width="40" height="20" as="geometry" />
        </mxCell>
        <mxCell id="2s33keV95Jbq0aOUCzER-83" value="4KB" style="text;html=1;align=center;verticalAlign=middle;resizable=0;points=[];autosize=1;strokeColor=none;fillColor=none;spacing=0;" parent="1" vertex="1">
          <mxGeometry x="161" y="170" width="40" height="20" as="geometry" />
        </mxCell>
        <mxCell id="2s33keV95Jbq0aOUCzER-84" value="1GB" style="text;html=1;align=center;verticalAlign=middle;resizable=0;points=[];autosize=1;strokeColor=none;fillColor=none;spacing=0;" parent="1" vertex="1">
          <mxGeometry x="586" y="365" width="40" height="20" as="geometry" />
        </mxCell>
        <mxCell id="2s33keV95Jbq0aOUCzER-85" value="" style="shape=curlyBracket;whiteSpace=wrap;html=1;rounded=1;flipH=1;labelPosition=right;verticalLabelPosition=middle;align=left;verticalAlign=middle;" parent="1" vertex="1">
          <mxGeometry x="573" y="340" width="20" height="70" as="geometry" />
        </mxCell>
        <mxCell id="2s33keV95Jbq0aOUCzER-86" value="页目录表" style="text;html=1;align=center;verticalAlign=middle;resizable=0;points=[];autosize=1;strokeColor=none;fillColor=none;spacing=0;fontStyle=1;fontSize=16;" parent="1" vertex="1">
          <mxGeometry x="120" y="376" width="80" height="30" as="geometry" />
        </mxCell>
        <mxCell id="2s33keV95Jbq0aOUCzER-88" style="edgeStyle=elbowEdgeStyle;rounded=0;orthogonalLoop=1;jettySize=auto;html=1;exitX=1;exitY=0.5;exitDx=0;exitDy=0;" parent="1" source="2s33keV95Jbq0aOUCzER-78" edge="1">
          <mxGeometry relative="1" as="geometry">
            <mxPoint x="460" y="210" as="targetPoint" />
            <mxPoint x="363" y="510" as="sourcePoint" />
            <Array as="points">
              <mxPoint x="390" y="360" />
            </Array>
          </mxGeometry>
        </mxCell>
        <mxCell id="2s33keV95Jbq0aOUCzER-90" value="1MB" style="text;html=1;align=center;verticalAlign=middle;resizable=0;points=[];autosize=1;strokeColor=none;fillColor=none;spacing=0;" parent="1" vertex="1">
          <mxGeometry x="507" y="382" width="40" height="20" as="geometry" />
        </mxCell>
        <mxCell id="2s33keV95Jbq0aOUCzER-93" value="" style="rounded=0;whiteSpace=wrap;html=1;fillColor=none;strokeColor=#0000FF;strokeWidth=3;" parent="1" vertex="1">
          <mxGeometry x="490" y="372" width="80" height="40" as="geometry" />
        </mxCell>
        <mxCell id="2s33keV95Jbq0aOUCzER-97" value="" style="edgeStyle=elbowEdgeStyle;rounded=0;orthogonalLoop=1;jettySize=auto;html=1;exitX=0.5;exitY=0;exitDx=0;exitDy=0;" parent="1" source="2s33keV95Jbq0aOUCzER-79" target="2s33keV95Jbq0aOUCzER-96" edge="1">
          <mxGeometry relative="1" as="geometry">
            <mxPoint x="470" y="210" as="targetPoint" />
            <mxPoint x="530" y="332" as="sourcePoint" />
            <Array as="points">
              <mxPoint x="530" y="270" />
            </Array>
          </mxGeometry>
        </mxCell>
        <mxCell id="2s33keV95Jbq0aOUCzER-103" style="edgeStyle=orthogonalEdgeStyle;rounded=0;orthogonalLoop=1;jettySize=auto;html=1;" parent="1" source="2s33keV95Jbq0aOUCzER-96" edge="1">
          <mxGeometry relative="1" as="geometry">
            <mxPoint x="466.5" y="140" as="targetPoint" />
          </mxGeometry>
        </mxCell>
        <mxCell id="2s33keV95Jbq0aOUCzER-96" value="&lt;font style=&quot;font-size: 16px;&quot;&gt;+&lt;/font&gt;" style="ellipse;whiteSpace=wrap;html=1;aspect=fixed;" parent="1" vertex="1">
          <mxGeometry x="460" y="203" width="13" height="13" as="geometry" />
        </mxCell>
        <mxCell id="2s33keV95Jbq0aOUCzER-99" value="基址" style="text;html=1;align=center;verticalAlign=middle;resizable=0;points=[];autosize=1;strokeColor=none;fillColor=none;spacing=0;fontStyle=1;fontSize=16;" parent="1" vertex="1">
          <mxGeometry x="390" y="185" width="50" height="30" as="geometry" />
        </mxCell>
        <mxCell id="2s33keV95Jbq0aOUCzER-100" value="偏移量" style="text;html=1;align=center;verticalAlign=middle;resizable=0;points=[];autosize=1;strokeColor=none;fillColor=none;spacing=0;fontStyle=1;fontSize=16;" parent="1" vertex="1">
          <mxGeometry x="475" y="185" width="70" height="30" as="geometry" />
        </mxCell>
        <mxCell id="2s33keV95Jbq0aOUCzER-101" value="&lt;b&gt;256×4KB&lt;/b&gt;&lt;div&gt;&lt;b&gt;=1MB&lt;/b&gt;&lt;/div&gt;&lt;div&gt;&lt;br&gt;&lt;/div&gt;" style="rounded=0;whiteSpace=wrap;html=1;fillColor=none;strokeColor=#FF3333;strokeWidth=3;verticalAlign=middle;" parent="1" vertex="1">
          <mxGeometry x="260" y="460" width="80" height="100" as="geometry" />
        </mxCell>
        <mxCell id="2s33keV95Jbq0aOUCzER-105" value="&lt;b style=&quot;font-size: 16px;&quot;&gt;物理地址&lt;/b&gt;" style="rounded=0;whiteSpace=wrap;html=1;fontSize=16;" parent="1" vertex="1">
          <mxGeometry x="426.5" y="110" width="80" height="30" as="geometry" />
        </mxCell>
        <mxCell id="2s33keV95Jbq0aOUCzER-106" value="" style="rounded=0;whiteSpace=wrap;html=1;fillColor=none;strokeWidth=3;strokeColor=#663300;" parent="1" vertex="1">
          <mxGeometry x="120" y="138" width="36" height="20" as="geometry" />
        </mxCell>
        <mxCell id="2s33keV95Jbq0aOUCzER-107" value="4KB" style="text;html=1;align=center;verticalAlign=middle;resizable=0;points=[];autosize=1;strokeColor=none;fillColor=none;spacing=0;" parent="1" vertex="1">
          <mxGeometry x="161" y="138" width="40" height="20" as="geometry" />
        </mxCell>
      </root>
    </mxGraphModel>
  </diagram>
</mxfile>
